<mxfile host="app.diagrams.net" modified="2024-02-22T08:44:48.359Z" agent="Mozilla/5.0 (Windows NT 10.0; Win64; x64) AppleWebKit/537.36 (KHTML, like Gecko) Chrome/120.0.0.0 Safari/537.36 OPR/106.0.0.0" etag="AiRQ_8dWHZ49uKUPJW94" version="23.1.5" type="github">
  <diagram name="PÃ¡gina-1" id="6LRaUovpJfNCwrDUA6Oh">
    <mxGraphModel dx="1009" dy="573" grid="1" gridSize="10" guides="1" tooltips="1" connect="1" arrows="1" fold="1" page="1" pageScale="1" pageWidth="827" pageHeight="1169" math="0" shadow="0">
      <root>
        <mxCell id="0" />
        <mxCell id="1" parent="0" />
        <mxCell id="RoQzuMsbmJKP9msa9h95-1" value="" style="shape=umlActor;verticalLabelPosition=bottom;verticalAlign=top;html=1;outlineConnect=0;" vertex="1" parent="1">
          <mxGeometry x="200" y="180" width="70" height="120" as="geometry" />
        </mxCell>
        <mxCell id="RoQzuMsbmJKP9msa9h95-3" value="" style="ellipse;whiteSpace=wrap;html=1;" vertex="1" parent="1">
          <mxGeometry x="414" y="70" width="120" height="80" as="geometry" />
        </mxCell>
        <mxCell id="RoQzuMsbmJKP9msa9h95-4" value="" style="ellipse;whiteSpace=wrap;html=1;" vertex="1" parent="1">
          <mxGeometry x="600" y="10" width="120" height="80" as="geometry" />
        </mxCell>
        <mxCell id="RoQzuMsbmJKP9msa9h95-5" value="" style="ellipse;whiteSpace=wrap;html=1;" vertex="1" parent="1">
          <mxGeometry x="580" y="140" width="120" height="80" as="geometry" />
        </mxCell>
        <mxCell id="RoQzuMsbmJKP9msa9h95-6" value="Asyncronous" style="ellipse;whiteSpace=wrap;html=1;" vertex="1" parent="1">
          <mxGeometry x="620" y="430" width="120" height="80" as="geometry" />
        </mxCell>
        <mxCell id="RoQzuMsbmJKP9msa9h95-7" value="Syncronous" style="ellipse;whiteSpace=wrap;html=1;" vertex="1" parent="1">
          <mxGeometry x="610" y="310" width="120" height="80" as="geometry" />
        </mxCell>
        <mxCell id="RoQzuMsbmJKP9msa9h95-8" value="get something" style="ellipse;whiteSpace=wrap;html=1;" vertex="1" parent="1">
          <mxGeometry x="410" y="380" width="120" height="80" as="geometry" />
        </mxCell>
      </root>
    </mxGraphModel>
  </diagram>
</mxfile>
